<svg width="56" height="56" viewBox="0 0 56 56" fill="none" xmlns="http://www.w3.org/2000/svg">
<mask id="mask0_2131_53" style="mask-type:luminance" maskUnits="userSpaceOnUse" x="3" y="0" width="50" height="56">
<path d="M3.7478 0H52.0237V56H3.7478V0Z" fill="white"/>
</mask>
<g mask="url(#mask0_2131_53)">
<path d="M7.42891 0.0220127C8.15305 -0.117116 7.86473 3.03925 11.4737 6.41856C18.1016 12.3257 28.0065 10.6544 35.1674 15.6564C40.0973 19.3257 39.938 27.6951 33.2297 30.4509C43.0257 33.9894 41.6478 47.3575 30.7757 47.7481H21.2345C19.4442 47.619 17.7412 48.1906 17.6825 47.0407C17.6456 45.9126 19.8599 46.4473 20.5053 46.3316V32.0333C21.5798 32.4875 23.7555 33.0826 24.1662 33.3106C24.1662 34.0548 24.1662 46.3333 24.1662 46.335C26.518 46.3266 29.4866 46.4372 31.7462 45.569C35.1439 44.1944 37.1957 37.8465 33.5666 35.3355C27.8338 30.8281 9.66334 31.3996 8.25865 17.0242C8.27541 16.4526 9.01631 16.4526 9.08504 17.0661C11.8458 26.2435 20.7199 26.9258 29.5168 29.2205C32.3429 29.0211 34.2187 25.454 34.2405 22.7854C34.6008 17.3929 27.0594 16.647 19.1677 13.732C14.7072 12.0608 9.9131 9.46095 7.91837 4.33332C7.79098 4.01483 6.39634 -0.0416848 7.42891 0.0220127ZM52.007 30.6504C51.5292 17.2505 40.2749 6.92982 27.3578 7.63049C48.274 8.99495 57.1866 33.3843 42.8144 47.4631C27.8724 61.3374 4.88604 50.9581 3.77972 31.2572C3.13101 43.5591 12.2481 53.8915 23.8461 55.6851C39.2725 58.0804 52.5685 45.7383 52.007 30.6504Z" fill="white"/>
</g>
</svg>
