<svg width="40" height="40" viewBox="0 0 40 40" fill="none" xmlns="http://www.w3.org/2000/svg">
<path d="M38.25 23.4996C38.1187 23.5981 37.9692 23.6698 37.8102 23.7105C37.6512 23.7513 37.4857 23.7603 37.3232 23.7371C37.1607 23.7139 37.0044 23.6589 36.8631 23.5752C36.7219 23.4916 36.5985 23.381 36.5 23.2496C35.7466 22.2369 34.7659 21.4152 33.6369 20.8507C32.5079 20.2863 31.2622 19.9947 30 19.9996C29.7542 19.9996 29.5138 19.9271 29.309 19.7912C29.1042 19.6553 28.944 19.462 28.8484 19.2356C28.7835 19.0818 28.7501 18.9165 28.7501 18.7496C28.7501 18.5827 28.7835 18.4175 28.8484 18.2637C28.944 18.0372 29.1042 17.8439 29.309 17.708C29.5138 17.5721 29.7542 17.4997 30 17.4996C30.7013 17.4996 31.3886 17.3028 31.9838 16.9317C32.5789 16.5606 33.0581 16.0301 33.3668 15.4003C33.6755 14.7706 33.8015 14.0668 33.7303 13.3691C33.6591 12.6714 33.3937 12.0076 32.9642 11.4531C32.5347 10.8986 31.9583 10.4758 31.3005 10.2325C30.6426 9.98918 29.9298 9.93524 29.2429 10.0768C28.5559 10.2183 27.9225 10.5497 27.4144 11.0332C26.9063 11.5167 26.5441 12.133 26.3687 12.8121C26.3277 12.9712 26.2557 13.1205 26.157 13.2517C26.0582 13.383 25.9346 13.4934 25.7931 13.5769C25.6516 13.6603 25.4951 13.715 25.3325 13.738C25.1699 13.7609 25.0043 13.7516 24.8453 13.7106C24.6863 13.6695 24.5369 13.5976 24.4057 13.4988C24.2745 13.4 24.164 13.2764 24.0806 13.1349C23.9971 12.9935 23.9424 12.8369 23.9194 12.6743C23.8965 12.5117 23.9058 12.3462 23.9469 12.1871C24.1902 11.2454 24.65 10.3735 25.2897 9.6408C25.9293 8.90807 26.7311 8.33474 27.6313 7.96643C28.5315 7.59811 29.5053 7.44497 30.4751 7.51921C31.4449 7.59344 32.3839 7.89299 33.2176 8.39402C34.0513 8.89505 34.7565 9.58374 35.2771 10.4053C35.7978 11.2268 36.1195 12.1585 36.2168 13.1263C36.314 14.0941 36.184 15.0712 35.8371 15.9799C35.4902 16.8885 34.9361 17.7037 34.2187 18.3606C35.9184 19.0965 37.396 20.2643 38.5047 21.7481C38.6032 21.8797 38.6747 22.0295 38.7152 22.1889C38.7557 22.3482 38.7644 22.514 38.7407 22.6767C38.7171 22.8394 38.6616 22.9958 38.5773 23.137C38.4931 23.2783 38.3819 23.4015 38.25 23.4996ZM29.8312 33.1246C29.9217 33.2669 29.9824 33.426 30.0098 33.5923C30.0371 33.7587 30.0306 33.9289 29.9904 34.0926C29.9503 34.2564 29.8775 34.4103 29.7764 34.5452C29.6752 34.68 29.5479 34.7931 29.4019 34.8774C29.2559 34.9618 29.0944 35.0158 28.9271 35.0361C28.7597 35.0564 28.59 35.0427 28.4281 34.9957C28.2662 34.9487 28.1154 34.8695 27.9849 34.7628C27.8544 34.656 27.7469 34.524 27.6687 34.3746C26.8813 33.0413 25.7599 31.9363 24.415 31.1687C23.0702 30.4011 21.5485 29.9973 20 29.9973C18.4515 29.9973 16.9298 30.4011 15.5849 31.1687C14.2401 31.9363 13.1187 33.0413 12.3312 34.3746C12.2531 34.524 12.1455 34.656 12.015 34.7628C11.8846 34.8695 11.7338 34.9487 11.5719 34.9957C11.41 35.0427 11.2403 35.0564 11.0729 35.0361C10.9055 35.0158 10.744 34.9618 10.5981 34.8774C10.4521 34.7931 10.3247 34.68 10.2236 34.5452C10.1224 34.4103 10.0496 34.2564 10.0095 34.0926C9.96941 33.9289 9.96284 33.7587 9.9902 33.5923C10.0176 33.426 10.0783 33.2669 10.1687 33.1246C11.3806 31.0424 13.2284 29.4038 15.4406 28.4496C14.1958 27.4966 13.281 26.1774 12.8247 24.6775C12.3684 23.1776 12.3936 21.5724 12.8967 20.0876C13.3999 18.6028 14.3557 17.313 15.6298 16.3994C16.9039 15.4859 18.4322 14.9946 20 14.9946C21.5677 14.9946 23.0961 15.4859 24.3702 16.3994C25.6443 17.313 26.6001 18.6028 27.1032 20.0876C27.6064 21.5724 27.6316 23.1776 27.1753 24.6775C26.719 26.1774 25.8042 27.4966 24.5594 28.4496C26.7716 29.4038 28.6194 31.0424 29.8312 33.1246ZM20 27.4996C20.9889 27.4996 21.9556 27.2064 22.7778 26.657C23.6001 26.1076 24.2409 25.3267 24.6194 24.413C24.9978 23.4994 25.0968 22.4941 24.9039 21.5242C24.711 20.5543 24.2348 19.6634 23.5355 18.9641C22.8363 18.2648 21.9453 17.7886 20.9754 17.5957C20.0055 17.4028 19.0002 17.5018 18.0866 17.8802C17.1729 18.2587 16.392 18.8995 15.8426 19.7218C15.2932 20.544 15 21.5107 15 22.4996C15 23.8257 15.5268 25.0975 16.4645 26.0352C17.4021 26.9728 18.6739 27.4996 20 27.4996ZM11.25 18.7496C11.25 18.4181 11.1183 18.1002 10.8839 17.8657C10.6494 17.6313 10.3315 17.4996 9.99999 17.4996C9.29862 17.4996 8.61133 17.3028 8.01619 16.9317C7.42104 16.5606 6.94189 16.0301 6.63316 15.4003C6.32443 14.7706 6.1985 14.0668 6.26967 13.3691C6.34084 12.6714 6.60626 12.0076 7.03578 11.4531C7.4653 10.8986 8.0417 10.4758 8.69952 10.2325C9.35733 9.98918 10.0702 9.93524 10.7571 10.0768C11.4441 10.2183 12.0775 10.5497 12.5856 11.0332C13.0936 11.5167 13.4559 12.133 13.6312 12.8121C13.7141 13.1333 13.9212 13.4084 14.2069 13.5769C14.4926 13.7454 14.8335 13.7934 15.1547 13.7106C15.4758 13.6277 15.7509 13.4206 15.9194 13.1349C16.0879 12.8492 16.136 12.5083 16.0531 12.1871C15.8097 11.2454 15.3499 10.3735 14.7103 9.6408C14.0707 8.90807 13.2689 8.33474 12.3687 7.96643C11.4685 7.59811 10.4947 7.44497 9.52492 7.51921C8.55512 7.59344 7.61603 7.89299 6.78237 8.39402C5.94871 8.89505 5.24349 9.58374 4.72283 10.4053C4.20217 11.2268 3.88043 12.1585 3.78322 13.1263C3.68601 14.0941 3.816 15.0712 4.16287 15.9799C4.50973 16.8885 5.06388 17.7037 5.78124 18.3606C4.08324 19.0972 2.60735 20.265 1.49999 21.7481C1.30087 22.0133 1.21526 22.3467 1.262 22.6751C1.30873 23.0034 1.48399 23.2997 1.7492 23.4988C2.01442 23.698 2.34787 23.7836 2.67621 23.7368C3.00455 23.6901 3.30087 23.5148 3.49999 23.2496C4.2534 22.2369 5.23407 21.4152 6.36305 20.8507C7.49202 20.2863 8.73776 19.9947 9.99999 19.9996C10.3315 19.9996 10.6494 19.8679 10.8839 19.6335C11.1183 19.3991 11.25 19.0811 11.25 18.7496Z" fill="#EADDFF"/>
</svg>
